<svg xmlns="http://www.w3.org/2000/svg" width="40" height="40" viewBox="0 0 40 40"><defs><style>.a{fill:none;}.b{fill:#bcc9d9;}</style></defs><path class="a" d="M0,0H40V40H0Z"/><path class="b" d="M18.667,2A16.667,16.667,0,1,0,35.333,18.667,16.673,16.673,0,0,0,18.667,2ZM10.45,29.133c.717-1.5,5.083-2.967,8.217-2.967s7.517,1.467,8.217,2.967a13.209,13.209,0,0,1-16.433,0Zm18.817-2.417c-2.383-2.9-8.167-3.883-10.6-3.883s-8.217.983-10.6,3.883a13.333,13.333,0,1,1,21.2,0Zm-10.6-18.05A5.833,5.833,0,1,0,24.5,14.5,5.818,5.818,0,0,0,18.667,8.667Zm0,8.333a2.5,2.5,0,1,1,2.5-2.5A2.5,2.5,0,0,1,18.667,17Z" transform="translate(1.333 1.333)"/></svg>