<svg xmlns="http://www.w3.org/2000/svg" width="32.807" height="32.807" viewBox="0 0 32.807 32.807"><defs><style>.a{fill:#bcc9d9;}.b{fill:none;}</style></defs><path class="a" d="M25.605,15.3H22.872v4.1h-4.1v2.734h6.835ZM9.2,11.2h4.1V8.468H6.468V15.3H9.2ZM28.339,3H3.734A2.742,2.742,0,0,0,1,5.734V24.872a2.742,2.742,0,0,0,2.734,2.734H28.339a2.742,2.742,0,0,0,2.734-2.734V5.734A2.742,2.742,0,0,0,28.339,3Zm0,21.885H3.734V5.72H28.339Z" transform="translate(0.367 1.101)"/><path class="b" d="M0,0H32.807V32.807H0Z"/></svg>