<svg xmlns="http://www.w3.org/2000/svg" width="30.274" height="33.637" viewBox="0 0 30.274 33.637"><defs><style>.a{fill:#0186ea;}</style></defs><g transform="translate(-4 -1)"><path class="a" d="M9.727,24.546H21.5V27.91H9.727Zm0-6.727H26.546v3.364H9.727Zm0-6.727H26.546v3.364H9.727ZM29.91,4.364H22.88a5.026,5.026,0,0,0-9.486,0H6.364a2.946,2.946,0,0,0-.673.067,3.4,3.4,0,0,0-2.422,2A3.24,3.24,0,0,0,3,7.727V31.274a3.451,3.451,0,0,0,.269,1.312,3.564,3.564,0,0,0,.723,1.076,3.377,3.377,0,0,0,1.7.925,4.365,4.365,0,0,0,.673.05H29.91a3.374,3.374,0,0,0,3.364-3.364V7.727A3.374,3.374,0,0,0,29.91,4.364Zm-11.773-.42A1.261,1.261,0,1,1,16.875,5.2,1.271,1.271,0,0,1,18.137,3.943ZM29.91,31.274H6.364V7.727H29.91Z" transform="translate(1)"/></g></svg>