<svg xmlns="http://www.w3.org/2000/svg" width="43.2" height="30.24" viewBox="0 0 43.2 30.24"><defs><style>.a{fill:#0186ea;}</style></defs><g transform="translate(-3.583 -8.958)"><path class="a" d="M17.12,23.9C12.066,23.9,2,26.427,2,31.46v3.78H32.24V31.46C32.24,26.427,22.175,23.9,17.12,23.9ZM7.054,30.92a20.826,20.826,0,0,1,10.066-2.7,20.826,20.826,0,0,1,10.066,2.7ZM17.12,20.12a7.56,7.56,0,1,0-7.56-7.56A7.568,7.568,0,0,0,17.12,20.12Zm0-10.8a3.24,3.24,0,1,1-3.24,3.24A3.236,3.236,0,0,1,17.12,9.32ZM32.327,24.03c2.506,1.814,4.234,4.234,4.234,7.43v3.78H45.2V31.46C45.2,27.1,37.64,24.613,32.327,24.03ZM30.08,20.12A7.56,7.56,0,0,0,30.08,5a7.442,7.442,0,0,0-3.24.756,11.8,11.8,0,0,1,0,13.608A7.442,7.442,0,0,0,30.08,20.12Z" transform="translate(1.583 3.958)"/></g></svg>