<svg xmlns="http://www.w3.org/2000/svg" width="75.494" height="75.494" viewBox="0 0 75.494 75.494"><defs><style>.a{fill:#fff;}</style></defs><g transform="translate(-256.316 -224.72)"><path class="a" d="M53.329,28.165H28.165V53.329H53.329ZM44.941,44.941H36.553V36.553h8.388Zm33.553-8.388V28.165H70.106V19.776a8.413,8.413,0,0,0-8.388-8.388H53.329V3H44.941v8.388H36.553V3H28.165v8.388H19.776a8.413,8.413,0,0,0-8.388,8.388v8.388H3v8.388h8.388v8.388H3v8.388h8.388v8.388a8.413,8.413,0,0,0,8.388,8.388h8.388v8.388h8.388V70.106h8.388v8.388h8.388V70.106h8.388a8.413,8.413,0,0,0,8.388-8.388V53.329h8.388V44.941H70.106V36.553ZM61.717,61.717H19.776V19.776H61.717Z" transform="translate(253.316 221.72)"/></g></svg>