<?xml version="1.0" encoding="UTF-8"?>
<svg width="12px" height="12px" viewBox="0 0 12 12" version="1.1" xmlns="http://www.w3.org/2000/svg" xmlns:xlink="http://www.w3.org/1999/xlink">
    <!-- Generator: sketchtool 53.2 (72643) - https://sketchapp.com -->
    <title>13EDF537-07AE-4F89-B4B8-EDCD7994D923</title>
    <desc>Created with sketchtool.</desc>
    <g id="Page-1" stroke="none" stroke-width="1" fill="none" fill-rule="evenodd">
        <g id="Employers_Jobs_List_Sort" transform="translate(-1257.000000, -165.000000)" fill="#9C9BAF">
            <g id="Atoms/Sort" transform="translate(1163.000000, 162.000000)">
                <g id="Icons/UI/Arrow" transform="translate(100.000000, 9.000000) rotate(-270.000000) translate(-100.000000, -9.000000) translate(94.000000, 3.000000)">
                    <path d="M8.57106781,5 L6.03553391,2.46446609 C5.64500961,2.0739418 5.64500961,1.44077682 6.03553391,1.05025253 C6.4260582,0.65972824 7.05922318,0.65972824 7.44974747,1.05025253 L11.6923882,5.29289322 C12.0829124,5.68341751 12.0829124,6.31658249 11.6923882,6.70710678 L7.44974747,10.9497475 C7.05922318,11.3402718 6.4260582,11.3402718 6.03553391,10.9497475 C5.64500961,10.5592232 5.64500961,9.9260582 6.03553391,9.53553391 L8.57106781,7 L1,7 C0.44771525,7 0,6.55228475 0,6 C0,5.44771525 0.44771525,5 1,5 L8.57106781,5 Z" id="Combined-Shape"></path>
                </g>
            </g>
        </g>
    </g>
</svg>